HIERARCHY
ROOT Hips
{
	OFFSET 0.000000 0.000000 0.000000
	CHANNELS 6 Xposition Yposition Zposition Zrotation Yrotation Xrotation 
	JOINT LowerBack
	{
		OFFSET 0.000000 0.000000 0.000000
		CHANNELS 3 Zrotation Yrotation Xrotation
		JOINT Spine
		{
			OFFSET 0.028270 2.035590 -0.193380
			CHANNELS 3 Zrotation Yrotation Xrotation
			JOINT Spine1
			{
				OFFSET 0.056720 2.048850 -0.042750
				CHANNELS 3 Zrotation Yrotation Xrotation
				JOINT Neck
				{
					OFFSET 0.000000 0.000000 0.000000
					CHANNELS 3 Zrotation Yrotation Xrotation
					JOINT Neck1
					{
						OFFSET -0.054170 1.746240 0.172020
						CHANNELS 3 Zrotation Yrotation Xrotation
						JOINT Head
						{
							OFFSET 0.104070 1.761360 -0.123970
							CHANNELS 3 Zrotation Yrotation Xrotation
							End Site
							{
								OFFSET 0.000000 0.000000 0.000000
							}
						}
					}
				}
				JOINT LeftShoulder
				{
					OFFSET 0.000000 0.000000 0.000000
					CHANNELS 3 Zrotation Yrotation Xrotation
					JOINT LeftArm
					{
						OFFSET 3.362410 1.200890 -0.311210
						CHANNELS 3 Zrotation Yrotation Xrotation
						JOINT LeftForeArm
						{
							OFFSET 4.983000 -0.000000 -0.000000
							CHANNELS 3 Zrotation Yrotation Xrotation
							JOINT LeftHand
							{
								OFFSET 3.483560 -0.000000 -0.000000
								CHANNELS 3 Zrotation Yrotation Xrotation
								JOINT LeftFingerBase
								{
									OFFSET 0.000000 0.000000 0.000000
									CHANNELS 3 Zrotation Yrotation Xrotation
									JOINT LeftHandIndex1
									{
										OFFSET 0.715260 -0.000000 -0.000000
										CHANNELS 3 Zrotation Yrotation Xrotation
										End Site
										{
											OFFSET 0.000000 0.000000 0.000000
										}
									}
								}
								JOINT LThumb
								{
									OFFSET 0.000000 0.000000 0.000000
									CHANNELS 3 Zrotation Yrotation Xrotation
									End Site
									{
										OFFSET 0.000000 0.000000 0.000000
									}
								}
							}
						}
					}
				}
				JOINT RightShoulder
				{
					OFFSET 0.000000 0.000000 0.000000
					CHANNELS 3 Zrotation Yrotation Xrotation
					JOINT RightArm
					{
						OFFSET -3.136600 1.374050 -0.404650
						CHANNELS 3 Zrotation Yrotation Xrotation
						JOINT RightForeArm
						{
							OFFSET -5.241900 -0.000000 -0.000000
							CHANNELS 3 Zrotation Yrotation Xrotation
							JOINT RightHand
							{
								OFFSET -3.444170 -0.000000 -0.000000
								CHANNELS 3 Zrotation Yrotation Xrotation
								JOINT RightFingerBase
								{
									OFFSET 0.000000 0.000000 0.000000
									CHANNELS 3 Zrotation Yrotation Xrotation
									JOINT RightHandIndex1
									{
										OFFSET -0.622530 -0.000000 -0.000000
										CHANNELS 3 Zrotation Yrotation Xrotation
										End Site
										{
											OFFSET 0.000000 0.000000 0.000000
										}
									}
								}
								JOINT RThumb
								{
									OFFSET 0.000000 0.000000 0.000000
									CHANNELS 3 Zrotation Yrotation Xrotation
									End Site
									{
										OFFSET 0.000000 0.000000 0.000000
									}
								}
							}
						}
					}
				}
			}
		}
	}
}
}
MOTION
Frames: 6
Frame Time: 0.008333
9.762216 14.841237 1.070923 54.235750 -84.227828 9.352753 1.104621 -0.683059 -0.602075 -0.599128 -0.826847 -3.254940 -4.395042 -0.986999 -0.928121 7.755853 -1.666599 -9.859093 -2.885791 -0.145046 -1.550078 0.000000 0.000000 0.000000 -2.978744 6.126396 5.739278 -68.370124 -2.529054 0.683827 -1.457681 -20.149511 -0.016677 3.586698 12.648225 0.401587 -0.057449 0.066724 -0.000000 0.000000 0.000000 0.000000 0.000000 0.000000 0.000000 13.896812 2.629902 2.205162 70.745036 23.157232 -8.812696 -0.256625 51.115021 -0.071682 -10.438772 10.902572 -1.051771 0.075962 -0.484504 0.000000 0.000000 0.000000 0.000000 0.000000 0.000000 0.000000 
9.664496 14.898049 1.064897 54.842003 -84.209350 8.595855 1.050674 -0.657829 -0.646828 -0.610004 -0.800089 -3.267391 -4.375631 -0.958511 -0.912991 7.728576 -1.789934 -9.918197 -2.879248 -0.144011 -1.562348 0.000000 0.000000 0.000000 -2.882253 6.229312 5.767179 -68.263801 -1.435329 0.661809 -1.482580 -20.179046 -0.016730 3.566107 12.731606 0.402183 -0.058257 0.063599 -0.000000 0.000000 0.000000 0.000000 0.000000 0.000000 0.000000 13.806962 2.554562 2.176013 70.548160 23.376213 -8.387349 -0.219063 51.795964 -0.070590 -10.270760 10.635981 -1.010457 0.076157 -0.484036 0.000000 0.000000 0.000000 0.000000 0.000000 0.000000 0.000000 
9.566856 14.952715 1.059808 55.442104 -84.206746 7.833875 0.991244 -0.633075 -0.673725 -0.621503 -0.773086 -3.273997 -4.354769 -0.929595 -0.896656 7.689992 -1.920723 -9.974668 -2.869440 -0.142707 -1.574108 0.000000 0.000000 0.000000 -2.787823 6.357341 5.790893 -68.164305 -0.388651 0.634274 -1.504238 -20.282565 -0.016860 3.569961 12.810925 0.405378 -0.059231 0.060707 -0.000000 0.000000 0.000000 0.000000 0.000000 0.000000 0.000000 13.693008 2.472551 2.141602 70.376255 23.633227 -7.927848 -0.184434 52.489753 -0.069829 -10.146950 10.425734 -0.979343 0.076774 -0.484348 0.000000 0.000000 0.000000 0.000000 0.000000 0.000000 0.000000 
9.469103 15.005360 1.055704 56.026924 -84.222037 7.080488 0.929587 -0.608760 -0.689620 -0.633237 -0.746109 -3.279102 -4.334148 -0.900650 -0.886536 7.637264 -2.034723 -10.017788 -2.857405 -0.141382 -1.581928 0.000000 0.000000 0.000000 -2.701056 6.466857 5.811679 -68.073194 0.669635 0.559010 -1.521220 -20.500273 -0.017022 3.592494 12.881011 0.410375 -0.060227 0.058081 -0.000000 0.000000 0.000000 0.000000 0.000000 0.000000 0.000000 13.550872 2.407716 2.103492 70.232961 23.898506 -7.461574 -0.152645 53.214110 -0.069333 -10.049957 10.287066 -0.957830 0.077502 -0.485698 0.000000 0.000000 0.000000 0.000000 0.000000 0.000000 0.000000 
9.371101 15.056021 1.052656 56.594413 -84.259225 6.342106 0.865525 -0.583604 -0.693995 -0.645043 -0.717858 -3.280252 -4.312947 -0.870297 -0.875208 7.575549 -2.150722 -10.056447 -2.842679 -0.139865 -1.588666 0.000000 0.000000 0.000000 -2.617153 6.605591 5.828267 -67.994027 1.677607 0.472610 -1.534886 -20.796472 -0.017206 3.628185 12.931353 0.416172 -0.061265 0.055809 -0.000000 0.000000 0.000000 0.000000 0.000000 0.000000 0.000000 13.387439 2.342157 2.058891 70.114575 24.194447 -6.968487 -0.122811 53.968265 -0.069063 -9.977530 10.217830 -0.945018 0.078397 -0.488029 0.000000 0.000000 0.000000 0.000000 0.000000 0.000000 0.000000 
9.272752 15.104775 1.050699 57.134596 -84.318485 5.630765 0.800296 -0.557425 -0.691026 -0.656761 -0.688301 -3.278983 -4.291770 -0.838547 -0.863492 7.506986 -2.264263 -10.088733 -2.825783 -0.138233 -1.593635 0.000000 0.000000 0.000000 -2.535521 6.766009 5.840914 -67.929291 2.644108 0.366676 -1.545418 -21.178216 -0.017382 3.668109 12.958366 0.421770 -0.062265 0.053909 -0.000000 0.000000 0.000000 0.000000 0.000000 0.000000 0.000000 13.205972 2.280523 2.008399 70.018385 24.514669 -6.454329 -0.094447 54.757422 -0.068930 -9.916535 10.206841 -0.938705 0.079310 -0.491225 0.000000 0.000000 0.000000 0.000000 0.000000 0.000000 0.000000 
